<mxfile host="app.diagrams.net" modified="2023-02-22T12:24:21.757Z" agent="5.0 (Windows NT 10.0; Win64; x64) AppleWebKit/537.36 (KHTML, like Gecko) Chrome/110.0.0.0 Safari/537.36" etag="ni2UsRelgl0z2gZlL53T" version="20.8.22" type="github">
  <diagram name="Trang-1" id="qy3PfZRcwMGWpj7CCEyL">
    <mxGraphModel dx="1969" dy="889" grid="1" gridSize="10" guides="1" tooltips="1" connect="1" arrows="1" fold="1" page="1" pageScale="1" pageWidth="827" pageHeight="1169" math="0" shadow="0">
      <root>
        <mxCell id="0" />
        <mxCell id="1" parent="0" />
        <mxCell id="hLvzpt7KgHT78NKKmSUC-1" value="Người dùng" style="shape=umlActor;verticalLabelPosition=bottom;verticalAlign=top;html=1;outlineConnect=0;" vertex="1" parent="1">
          <mxGeometry x="110" y="210" width="80" height="130" as="geometry" />
        </mxCell>
        <mxCell id="hLvzpt7KgHT78NKKmSUC-2" value="Đăng nhập" style="ellipse;whiteSpace=wrap;html=1;" vertex="1" parent="1">
          <mxGeometry x="80" y="70" width="70" height="60" as="geometry" />
        </mxCell>
        <mxCell id="hLvzpt7KgHT78NKKmSUC-3" value="Tìm Kiếm" style="ellipse;whiteSpace=wrap;html=1;" vertex="1" parent="1">
          <mxGeometry x="185" y="80" width="80" height="50" as="geometry" />
        </mxCell>
        <mxCell id="hLvzpt7KgHT78NKKmSUC-4" value="Đăng ký" style="ellipse;whiteSpace=wrap;html=1;" vertex="1" parent="1">
          <mxGeometry x="280" y="110" width="80" height="50" as="geometry" />
        </mxCell>
        <mxCell id="hLvzpt7KgHT78NKKmSUC-9" value="Cập nhập hồ sơ" style="ellipse;whiteSpace=wrap;html=1;" vertex="1" parent="1">
          <mxGeometry x="344" y="170" width="80" height="50" as="geometry" />
        </mxCell>
        <mxCell id="hLvzpt7KgHT78NKKmSUC-10" value="Đổi mật khẩu" style="ellipse;whiteSpace=wrap;html=1;" vertex="1" parent="1">
          <mxGeometry x="379" y="230" width="70" height="50" as="geometry" />
        </mxCell>
        <mxCell id="hLvzpt7KgHT78NKKmSUC-11" value="Bình Luận" style="ellipse;whiteSpace=wrap;html=1;" vertex="1" parent="1">
          <mxGeometry x="390" y="290" width="70" height="50" as="geometry" />
        </mxCell>
        <mxCell id="hLvzpt7KgHT78NKKmSUC-15" value="" style="endArrow=none;html=1;rounded=0;exitX=0.5;exitY=0;exitDx=0;exitDy=0;exitPerimeter=0;" edge="1" parent="1" source="hLvzpt7KgHT78NKKmSUC-1" target="hLvzpt7KgHT78NKKmSUC-2">
          <mxGeometry width="50" height="50" relative="1" as="geometry">
            <mxPoint x="140" y="220" as="sourcePoint" />
            <mxPoint x="190" y="170" as="targetPoint" />
          </mxGeometry>
        </mxCell>
        <mxCell id="hLvzpt7KgHT78NKKmSUC-16" value="" style="endArrow=none;html=1;rounded=0;exitX=1;exitY=0.3333333333333333;exitDx=0;exitDy=0;exitPerimeter=0;entryX=0.075;entryY=0.8;entryDx=0;entryDy=0;entryPerimeter=0;" edge="1" parent="1" source="hLvzpt7KgHT78NKKmSUC-1" target="hLvzpt7KgHT78NKKmSUC-9">
          <mxGeometry width="50" height="50" relative="1" as="geometry">
            <mxPoint x="300" y="320" as="sourcePoint" />
            <mxPoint x="360" y="250" as="targetPoint" />
            <Array as="points">
              <mxPoint x="340" y="210" />
            </Array>
          </mxGeometry>
        </mxCell>
        <mxCell id="hLvzpt7KgHT78NKKmSUC-17" value="" style="endArrow=none;html=1;rounded=0;" edge="1" parent="1" target="hLvzpt7KgHT78NKKmSUC-3">
          <mxGeometry width="50" height="50" relative="1" as="geometry">
            <mxPoint x="170" y="210" as="sourcePoint" />
            <mxPoint x="230" y="150" as="targetPoint" />
          </mxGeometry>
        </mxCell>
        <mxCell id="hLvzpt7KgHT78NKKmSUC-18" value="" style="endArrow=none;html=1;rounded=0;entryX=0;entryY=1;entryDx=0;entryDy=0;" edge="1" parent="1" source="hLvzpt7KgHT78NKKmSUC-1" target="hLvzpt7KgHT78NKKmSUC-4">
          <mxGeometry width="50" height="50" relative="1" as="geometry">
            <mxPoint x="300" y="290" as="sourcePoint" />
            <mxPoint x="300" y="220" as="targetPoint" />
          </mxGeometry>
        </mxCell>
        <mxCell id="hLvzpt7KgHT78NKKmSUC-20" value="" style="endArrow=none;html=1;rounded=0;" edge="1" parent="1">
          <mxGeometry width="50" height="50" relative="1" as="geometry">
            <mxPoint x="190" y="260" as="sourcePoint" />
            <mxPoint x="370" y="260" as="targetPoint" />
          </mxGeometry>
        </mxCell>
        <mxCell id="hLvzpt7KgHT78NKKmSUC-22" value="" style="endArrow=none;html=1;rounded=0;" edge="1" parent="1" target="hLvzpt7KgHT78NKKmSUC-11">
          <mxGeometry width="50" height="50" relative="1" as="geometry">
            <mxPoint x="200" y="270" as="sourcePoint" />
            <mxPoint x="390" y="350" as="targetPoint" />
          </mxGeometry>
        </mxCell>
        <mxCell id="hLvzpt7KgHT78NKKmSUC-24" style="edgeStyle=orthogonalEdgeStyle;rounded=0;orthogonalLoop=1;jettySize=auto;html=1;" edge="1" parent="1" source="hLvzpt7KgHT78NKKmSUC-23">
          <mxGeometry relative="1" as="geometry">
            <mxPoint x="150" y="390" as="targetPoint" />
          </mxGeometry>
        </mxCell>
        <mxCell id="hLvzpt7KgHT78NKKmSUC-23" value="admin" style="shape=umlActor;verticalLabelPosition=bottom;verticalAlign=top;html=1;outlineConnect=0;" vertex="1" parent="1">
          <mxGeometry x="105" y="490" width="80" height="130" as="geometry" />
        </mxCell>
        <mxCell id="hLvzpt7KgHT78NKKmSUC-25" value="Yêu cầu admin" style="ellipse;whiteSpace=wrap;html=1;" vertex="1" parent="1">
          <mxGeometry x="10" y="120" width="70" height="60" as="geometry" />
        </mxCell>
        <mxCell id="hLvzpt7KgHT78NKKmSUC-27" value="" style="endArrow=none;html=1;rounded=0;exitX=0.25;exitY=0.1;exitDx=0;exitDy=0;exitPerimeter=0;entryX=1;entryY=1;entryDx=0;entryDy=0;" edge="1" parent="1" source="hLvzpt7KgHT78NKKmSUC-1" target="hLvzpt7KgHT78NKKmSUC-25">
          <mxGeometry width="50" height="50" relative="1" as="geometry">
            <mxPoint x="45" y="210" as="sourcePoint" />
            <mxPoint x="105" y="150" as="targetPoint" />
          </mxGeometry>
        </mxCell>
        <mxCell id="hLvzpt7KgHT78NKKmSUC-28" value="Quản lý sản phẩm" style="ellipse;whiteSpace=wrap;html=1;" vertex="1" parent="1">
          <mxGeometry x="310" y="490" width="80" height="60" as="geometry" />
        </mxCell>
        <mxCell id="hLvzpt7KgHT78NKKmSUC-30" value="Quản lý website" style="ellipse;whiteSpace=wrap;html=1;" vertex="1" parent="1">
          <mxGeometry x="230" y="410" width="80" height="60" as="geometry" />
        </mxCell>
        <mxCell id="hLvzpt7KgHT78NKKmSUC-31" value="quản lú bình luận" style="ellipse;whiteSpace=wrap;html=1;" vertex="1" parent="1">
          <mxGeometry x="314" y="570" width="76" height="60" as="geometry" />
        </mxCell>
        <mxCell id="hLvzpt7KgHT78NKKmSUC-32" value="quản lý loại sản phẩm" style="ellipse;whiteSpace=wrap;html=1;" vertex="1" parent="1">
          <mxGeometry x="260" y="640" width="80" height="60" as="geometry" />
        </mxCell>
        <mxCell id="hLvzpt7KgHT78NKKmSUC-33" value="" style="endArrow=none;html=1;rounded=0;entryX=0.038;entryY=0.75;entryDx=0;entryDy=0;entryPerimeter=0;exitX=1;exitY=0.3333333333333333;exitDx=0;exitDy=0;exitPerimeter=0;" edge="1" parent="1" source="hLvzpt7KgHT78NKKmSUC-23" target="hLvzpt7KgHT78NKKmSUC-30">
          <mxGeometry width="50" height="50" relative="1" as="geometry">
            <mxPoint x="160" y="520" as="sourcePoint" />
            <mxPoint x="210" y="470" as="targetPoint" />
          </mxGeometry>
        </mxCell>
        <mxCell id="hLvzpt7KgHT78NKKmSUC-34" value="" style="endArrow=none;html=1;rounded=0;exitX=1;exitY=0.3333333333333333;exitDx=0;exitDy=0;exitPerimeter=0;" edge="1" parent="1" source="hLvzpt7KgHT78NKKmSUC-23">
          <mxGeometry width="50" height="50" relative="1" as="geometry">
            <mxPoint x="260" y="580" as="sourcePoint" />
            <mxPoint x="310" y="530" as="targetPoint" />
          </mxGeometry>
        </mxCell>
        <mxCell id="hLvzpt7KgHT78NKKmSUC-35" value="" style="endArrow=none;html=1;rounded=0;" edge="1" parent="1" target="hLvzpt7KgHT78NKKmSUC-31">
          <mxGeometry width="50" height="50" relative="1" as="geometry">
            <mxPoint x="190" y="540" as="sourcePoint" />
            <mxPoint x="270" y="580" as="targetPoint" />
          </mxGeometry>
        </mxCell>
        <mxCell id="hLvzpt7KgHT78NKKmSUC-36" value="" style="endArrow=none;html=1;rounded=0;entryX=0;entryY=0;entryDx=0;entryDy=0;" edge="1" parent="1" target="hLvzpt7KgHT78NKKmSUC-32">
          <mxGeometry width="50" height="50" relative="1" as="geometry">
            <mxPoint x="190" y="540" as="sourcePoint" />
            <mxPoint x="260" y="590" as="targetPoint" />
          </mxGeometry>
        </mxCell>
        <mxCell id="hLvzpt7KgHT78NKKmSUC-38" style="edgeStyle=orthogonalEdgeStyle;rounded=0;orthogonalLoop=1;jettySize=auto;html=1;" edge="1" parent="1" source="hLvzpt7KgHT78NKKmSUC-37">
          <mxGeometry relative="1" as="geometry">
            <mxPoint x="145" y="660" as="targetPoint" />
          </mxGeometry>
        </mxCell>
        <mxCell id="hLvzpt7KgHT78NKKmSUC-37" value="super_admin" style="shape=umlActor;verticalLabelPosition=bottom;verticalAlign=top;html=1;outlineConnect=0;" vertex="1" parent="1">
          <mxGeometry x="105" y="750" width="80" height="130" as="geometry" />
        </mxCell>
        <mxCell id="hLvzpt7KgHT78NKKmSUC-41" value="quản lý tài khoản" style="ellipse;whiteSpace=wrap;html=1;" vertex="1" parent="1">
          <mxGeometry x="260" y="750" width="80" height="60" as="geometry" />
        </mxCell>
        <mxCell id="hLvzpt7KgHT78NKKmSUC-42" value="phân quyền" style="ellipse;whiteSpace=wrap;html=1;" vertex="1" parent="1">
          <mxGeometry x="250" y="820" width="80" height="60" as="geometry" />
        </mxCell>
        <mxCell id="hLvzpt7KgHT78NKKmSUC-44" value="" style="endArrow=none;html=1;rounded=0;exitX=1;exitY=0.3333333333333333;exitDx=0;exitDy=0;exitPerimeter=0;" edge="1" parent="1" source="hLvzpt7KgHT78NKKmSUC-37">
          <mxGeometry width="50" height="50" relative="1" as="geometry">
            <mxPoint x="210" y="830" as="sourcePoint" />
            <mxPoint x="260" y="780" as="targetPoint" />
          </mxGeometry>
        </mxCell>
        <mxCell id="hLvzpt7KgHT78NKKmSUC-45" value="" style="endArrow=none;html=1;rounded=0;exitX=1;exitY=0.3333333333333333;exitDx=0;exitDy=0;exitPerimeter=0;entryX=-0.012;entryY=0.317;entryDx=0;entryDy=0;entryPerimeter=0;" edge="1" parent="1" source="hLvzpt7KgHT78NKKmSUC-37" target="hLvzpt7KgHT78NKKmSUC-42">
          <mxGeometry width="50" height="50" relative="1" as="geometry">
            <mxPoint x="195" y="803" as="sourcePoint" />
            <mxPoint x="270" y="840" as="targetPoint" />
          </mxGeometry>
        </mxCell>
      </root>
    </mxGraphModel>
  </diagram>
</mxfile>
